<svg width="12" height="21" viewBox="0 0 12 21" fill="none" xmlns="http://www.w3.org/2000/svg">
<path d="M8.6601 0C7.2099 0 5.8191 0.5607 4.79365 1.55875C3.76821 2.55681 3.19212 3.91046 3.19212 5.32192V8.28493H0.26601C0.119409 8.28493 0 8.4 0 8.54384V12.4562C0 12.5988 0.118226 12.7151 0.26601 12.7151H3.19212V20.7411C3.19212 20.8838 3.31035 21 3.45813 21H7.47783C7.62443 21 7.74384 20.8849 7.74384 20.7411V12.7151H10.696C10.8177 12.7151 10.9241 12.6345 10.9537 12.5195L11.9586 8.60712C11.9685 8.56895 11.9693 8.52908 11.961 8.49055C11.9527 8.45202 11.9354 8.41585 11.9106 8.38478C11.8857 8.35372 11.8539 8.32858 11.8176 8.31127C11.7813 8.29397 11.7413 8.28496 11.7009 8.28493H7.74384V5.32192C7.74384 5.20481 7.76754 5.08884 7.81359 4.98065C7.85963 4.87245 7.92712 4.77414 8.01221 4.69133C8.09729 4.60852 8.1983 4.54284 8.30946 4.49802C8.42063 4.4532 8.53977 4.43014 8.6601 4.43014H11.734C11.8806 4.43014 12 4.31507 12 4.17123V0.258904C12 0.116219 11.8818 0 11.734 0H8.6601Z" fill="#092530"/>
</svg>
