<svg width="705" height="390" viewBox="0 0 705 390" fill="none" xmlns="http://www.w3.org/2000/svg">
<g clip-path="url(#clip0_63_32)">
<path d="M0 273.415H47.3514C56.6486 273.415 63.7568 275.476 68.6757 279.57C73.5946 283.663 76.0811 288.814 76.0811 295.023C76.0811 300.201 74.3514 304.566 70.9189 308.199C67.4865 311.805 62.2973 314.651 55.3784 316.739C63.9459 318.555 70.3514 321.402 74.6216 325.279C78.8919 329.156 81.027 334.063 81.027 339.973C81.027 344.501 79.8108 348.486 77.3784 352.01C74.9459 355.481 70.8919 358.463 65.2162 360.876C59.5405 363.289 53.1081 364.509 45.9189 364.509H0V359.873H7.48649C9.72973 359.873 11.4054 359.52 12.4324 358.761C13.4865 358.029 14 357.161 14 356.24V283.257C14 281.522 13.4865 280.22 12.4595 279.353C11.4324 278.458 9.94595 278.024 7.97297 278.024H0V273.388V273.415ZM27.1351 315.248H44.3243C49.5946 315.248 53.8108 313.675 56.9459 310.558C60.0811 307.44 61.6486 302.343 61.6486 295.24C61.6486 290.848 60.8919 287.432 59.4054 284.965C57.9189 282.498 55.7568 280.708 52.8919 279.57C50.0541 278.431 45.1351 277.889 38.1351 277.889C33.1892 277.889 30.1081 278.241 28.9189 278.973C27.7297 279.678 27.1351 280.952 27.1351 282.742V315.221V315.248ZM27.1351 319.857V354.965C27.1351 356.592 27.6216 357.839 28.5676 358.653C29.5405 359.466 31.2703 359.873 33.7568 359.873H44.7568C52.027 359.873 57.4324 358.273 60.9189 355.047C64.4054 351.821 66.1351 346.805 66.1351 339.973C66.1351 333.738 64.3243 328.83 60.7297 325.225C57.1351 321.646 52.1622 319.83 45.8108 319.83H27.1351V319.857Z" fill="white"/>
<path d="M116.135 305.081C123.865 305.081 130.378 307.874 135.622 313.486C140.892 319.098 143.514 326.472 143.514 335.635C143.514 341.952 142.351 347.347 139.973 351.793C137.622 356.24 134.27 359.764 129.919 362.367C125.568 364.969 120.865 366.244 115.838 366.244C108.378 366.244 102.081 363.397 96.8919 357.731C91.7027 352.065 89.1351 344.717 89.1351 335.662C89.1351 326.607 91.7297 319.233 96.9459 313.54C102.135 307.874 108.541 305.027 116.162 305.027L116.135 305.081ZM116.135 309.446C111.541 309.446 107.784 311.534 104.838 315.709C101.892 319.884 100.405 326.445 100.405 335.446C100.405 344.446 101.865 351.305 104.811 355.535C107.73 359.764 111.514 361.879 116.135 361.879C120.757 361.879 124.811 359.764 127.784 355.535C130.757 351.305 132.243 344.392 132.243 334.768C132.243 325.848 130.784 319.423 127.865 315.438C124.946 311.452 121.027 309.446 116.162 309.446H116.135Z" fill="white"/>
<path d="M171.595 305.732V343.985C171.595 348.676 172.784 352.282 175.108 354.83C177.459 357.378 180.486 358.653 184.216 358.653C188.784 358.653 192.676 356.782 195.892 353.068C199.108 349.353 200.703 344.69 200.703 339.106V317.498C200.703 315.519 200 314.001 198.595 312.889C197.162 311.805 194.459 311.208 190.459 311.073V306.762L210.676 305.705V353.068C210.676 355.237 211.297 356.917 212.513 358.083C213.73 359.249 215.459 359.845 217.676 359.845H221.297V363.993L201.946 364.427L200.703 353.095C197.27 357.161 193.811 360.225 190.351 362.285C186.865 364.346 183.378 365.376 179.811 365.376C174.622 365.376 170.27 363.641 166.757 360.144C163.216 356.701 161.432 350.845 161.432 342.576V317.498C161.432 315.275 160.541 313.594 158.784 312.428C157.541 311.615 155.027 311.154 151.216 311.073V306.762L171.595 305.705V305.732Z" fill="white"/>
<path d="M250.432 272.358V356.023C250.432 357.162 250.784 358.056 251.459 358.68C252.486 359.493 253.73 359.9 255.216 359.9H261.297V364.536H228.676V359.9H234.459C236.351 359.9 237.73 359.439 238.676 358.544C239.595 357.649 240.054 356.375 240.054 354.721V284.504C240.054 282.47 239.486 280.952 238.405 280.003C236.892 278.702 235.027 278.051 232.811 278.051H227.649V273.415L250.432 272.358Z" fill="white"/>
<path d="M329.108 358.165L331.324 361.608C328.351 364.698 325 366.217 321.378 366.217C318.595 366.217 316.243 365.457 314.351 363.939C312.459 362.421 310.784 359.737 309.351 355.914C305.459 360.035 302.027 362.773 299.108 364.156C296.162 365.539 292.622 366.217 288.486 366.217C282.595 366.217 278.108 364.942 275.027 362.394C271.946 359.845 270.432 356.565 270.432 352.607C270.432 346.615 273.946 341.627 280.946 337.669C287.973 333.71 297.324 331.053 308.973 329.752V320.995C308.973 317.878 307.73 315.221 305.216 312.998C302.73 310.774 299.541 309.663 295.703 309.663C292.135 309.663 289.081 310.395 286.486 311.886C284.649 312.998 283.73 314.082 283.73 315.139C283.73 315.763 284.216 316.739 285.189 318.04C286.378 319.694 286.973 321.158 286.973 322.405C286.973 324.249 286.378 325.767 285.189 326.933C284 328.098 282.459 328.695 280.513 328.695C278.459 328.695 276.757 327.99 275.405 326.607C274.027 325.198 273.351 323.435 273.351 321.239C273.351 317.173 275.622 313.458 280.189 310.097C284.757 306.735 290.757 305.054 298.162 305.054C305 305.054 310.216 306.545 313.811 309.5C317.405 312.51 319.216 316.142 319.216 320.399V351.956C319.216 354.749 319.676 356.809 320.568 358.11C321.459 359.466 322.622 360.144 324.054 360.144C325.649 360.144 327.324 359.466 329.081 358.165H329.108ZM308.973 333.819C298.568 335.256 291.216 337.614 286.865 340.841C283.622 343.308 282.027 346.805 282.027 351.333C282.027 354.505 282.865 356.972 284.541 358.761C286.216 360.55 288.405 361.445 291.108 361.445C295.946 361.445 300.108 359.601 303.649 355.941C307.189 352.281 308.973 347.645 308.973 342.115V333.846V333.819Z" fill="white"/>
<path d="M338.243 306.789L357.351 305.623C358.135 309.229 358.703 313.458 359.081 318.311C361.649 314.109 364.703 310.964 368.189 308.877C371.676 306.789 375.649 305.732 380.081 305.732C383.892 305.732 387.081 306.491 389.676 307.982C392.243 309.473 394.324 311.859 395.865 315.085C397.405 318.338 398.189 321.971 398.189 325.984V354.071C398.189 356.158 398.649 357.649 399.595 358.544C400.541 359.439 402.108 359.873 404.324 359.873H408.378V364.509H378.054V359.873H380.946C383.649 359.873 385.541 359.439 386.595 358.571C387.676 357.704 388.189 356.402 388.189 354.694V329.996C388.189 324.628 387.351 320.643 385.73 318.04C383.432 314.353 379.973 312.482 375.297 312.482C370.622 312.482 366.811 314.353 363.703 318.094C360.622 321.836 359.081 326.689 359.081 332.707V354.098C359.081 356.185 359.568 357.677 360.513 358.571C361.486 359.466 363.054 359.9 365.27 359.9H369.27V364.536H338.811V359.9H342.811C344.811 359.9 346.351 359.493 347.378 358.68C348.432 357.839 348.946 356.836 348.946 355.589V318.311C348.946 315.844 348.27 313.974 346.946 312.699C345.622 311.425 343.703 310.802 341.216 310.802H338.27V306.789H338.243Z" fill="white"/>
<path d="M459.189 310.07C463.27 305.922 467.027 303.834 470.486 303.834C472.541 303.834 474.216 304.485 475.595 305.813C476.946 307.114 477.622 308.714 477.622 310.612C477.622 312.13 477.162 313.377 476.243 314.407C475.324 315.41 474.243 315.926 473 315.926C470.676 315.926 469.081 314.489 468.27 311.615C467.946 310.395 467.378 309.771 466.595 309.771C465.216 309.771 463.703 310.693 462.054 312.537C463.811 314.95 465.027 317.064 465.676 318.854C466.324 320.643 466.676 322.568 466.676 324.601C466.676 328.18 465.811 331.325 464.081 334.063C462.351 336.801 459.513 339.214 455.513 341.301C451.513 343.389 447.703 344.446 444.054 344.446H437.351C432.622 344.446 429.459 344.934 427.892 345.937C426.351 346.968 425.568 348.459 425.568 350.438C425.568 352.037 426.189 353.285 427.459 354.152C428.73 355.02 431.135 355.453 434.649 355.453L449.838 355.155C457.486 355.155 463 356.429 466.378 359.005C469.757 361.581 471.432 365.105 471.432 369.578C471.432 374.513 469.513 378.661 465.676 382.022C460.324 386.794 452.297 389.18 441.676 389.18C432.865 389.18 426.324 387.553 422.081 384.3C418.73 381.751 417.054 378.905 417.054 375.733C417.054 373.32 418.135 371.097 420.27 369.09C422.405 367.084 426.027 365.566 431.108 364.59C427.054 363.614 424 362.15 421.973 360.252C419.919 358.354 418.892 355.969 418.892 353.149C418.892 350.519 419.73 348.242 421.378 346.29C423.027 344.338 425.919 342.657 430 341.274C426.513 339.349 423.892 337.018 422.135 334.28C420.378 331.542 419.486 328.424 419.486 324.872C419.486 319.287 421.676 314.624 426.054 310.829C430.432 307.033 436.135 305.162 443.135 305.162C446 305.162 448.757 305.569 451.432 306.41C454.081 307.223 456.676 308.497 459.162 310.178L459.189 310.07ZM446.649 364.563C439.108 364.563 433.73 365.62 430.541 367.708C427.324 369.795 425.73 372.344 425.73 375.272C425.73 378.064 426.919 380.26 429.351 381.86C432.541 384.001 437.081 385.059 442.973 385.059C450.027 385.059 455.324 383.893 458.865 381.561C462.432 379.203 464.216 376.6 464.216 373.726C464.216 372.045 463.649 370.473 462.568 369.009C461.459 367.545 459.703 366.433 457.297 365.674C454.865 364.915 451.324 364.536 446.676 364.536L446.649 364.563ZM443.027 309.012C439.378 309.012 436.378 310.368 434 313.052C431.622 315.736 430.432 319.504 430.432 324.357C430.432 329.535 431.622 333.548 434 336.394C436.378 339.241 439.405 340.651 443.108 340.651C446.811 340.651 449.811 339.268 452.162 336.503C454.513 333.738 455.703 329.752 455.703 324.574C455.703 319.775 454.513 315.98 452.108 313.187C449.703 310.395 446.703 308.985 443.054 308.985L443.027 309.012Z" fill="white"/>
<path d="M536.622 336.069H495.405C495.622 344.853 497.243 351.062 500.324 354.667C503.838 358.734 508.324 360.767 513.784 360.767C521.811 360.767 528.243 356.185 533.135 347.022L537.135 348.757C531.162 360.415 522.513 366.244 511.216 366.244C503.513 366.244 497.054 363.451 491.784 357.866C486.541 352.281 483.892 345.124 483.892 336.421C483.892 327.068 486.486 319.504 491.649 313.73C496.811 307.982 503.216 305.081 510.784 305.081C516.351 305.081 521.162 306.518 525.216 309.392C529.27 312.266 532.324 316.386 534.351 321.754C535.784 325.523 536.541 330.294 536.622 336.042V336.069ZM495.405 331.704H520.324C521.811 331.704 522.946 331.216 523.757 330.213C524.595 329.21 525 327.475 525 325.062C525 320.534 523.595 316.712 520.784 313.54C517.973 310.368 514.676 308.795 510.865 308.795C506.595 308.795 503 310.693 500.027 314.516C497.054 318.338 495.514 324.059 495.405 331.704Z" fill="white"/>
<path d="M544.595 306.789L565.297 305.732V329.102C567.514 321.429 570.162 315.6 573.297 311.669C576.405 307.738 580.243 305.732 584.838 305.732C587.946 305.732 590.432 306.681 592.297 308.606C594.162 310.503 595.081 313.079 595.081 316.278C595.081 318.881 594.459 320.887 593.216 322.324C591.973 323.761 590.378 324.493 588.514 324.493C586.649 324.493 585.189 323.869 584.054 322.649C582.919 321.429 582.378 319.748 582.378 317.661C582.378 316.305 582.703 315.031 583.351 313.838C583.973 312.781 584.27 312.13 584.27 311.913C584.27 311.29 583.892 310.991 583.108 310.991C581.432 310.991 579.541 311.967 577.405 313.946C574.459 316.685 572.189 320.48 570.595 325.279C568.135 332.762 566.919 338.726 566.919 343.199V355.589C566.919 356.972 567.405 358.056 568.405 358.788C569.378 359.52 571.054 359.9 573.432 359.9H580.73V364.536H545V359.9H550.703C552.622 359.9 554.081 359.52 555.054 358.761C556.027 358.002 556.541 357.107 556.541 356.023V319.26C556.541 316.468 555.946 314.434 554.757 313.133C553.568 311.832 551.865 311.181 549.676 311.181H544.622V306.816L544.595 306.789Z" fill="white"/>
<path d="M600.216 306.789L623.135 306.111V355.752C623.135 357.107 623.459 358.083 624.135 358.653C625.081 359.466 626.27 359.873 627.703 359.873H634.216V364.509H601.486V359.873H607.568C609.378 359.873 610.703 359.439 611.541 358.544C612.378 357.649 612.784 356.375 612.784 354.694V318.338C612.784 316.034 612.135 314.299 610.811 313.133C609.513 311.967 607.568 311.371 604.973 311.371H600.243V306.762L600.216 306.789ZM616.189 272.358C618.027 272.358 619.649 273.063 621.054 274.446C622.432 275.828 623.135 277.482 623.135 279.38C623.135 281.278 622.459 282.823 621.108 284.178C619.757 285.534 618.135 286.212 616.27 286.212C614.405 286.212 612.757 285.534 611.378 284.151C610 282.769 609.324 281.169 609.324 279.298C609.324 277.428 610.027 275.828 611.405 274.446C612.811 273.063 614.405 272.358 616.189 272.358Z" fill="white"/>
<path d="M694.919 336.069H653.703C653.919 344.853 655.541 351.062 658.622 354.667C662.162 358.734 666.622 360.767 672.081 360.767C680.108 360.767 686.541 356.185 691.432 347.022L695.432 348.757C689.459 360.415 680.811 366.244 669.513 366.244C661.811 366.244 655.324 363.451 650.081 357.866C644.811 352.281 642.189 345.124 642.189 336.421C642.189 327.068 644.784 319.504 649.946 313.73C655.108 307.982 661.513 305.081 669.081 305.081C674.649 305.081 679.459 306.518 683.513 309.392C687.568 312.266 690.595 316.386 692.649 321.754C694.081 325.523 694.838 330.294 694.919 336.042V336.069ZM653.703 331.704H678.622C680.108 331.704 681.243 331.216 682.054 330.213C682.892 329.21 683.297 327.475 683.297 325.062C683.297 320.534 681.892 316.712 679.081 313.54C676.27 310.368 672.973 308.795 669.162 308.795C664.892 308.795 661.297 310.693 658.324 314.516C655.351 318.338 653.811 324.059 653.703 331.704Z" fill="white"/>
<path d="M0.24324 4.96133H101.027V16.9715H82.5405C76.0541 16.9715 71.8378 18.1102 69.8649 20.4147C67.8919 22.7191 66.9189 28.2769 66.9189 37.1422V110.098H174.73V37.1151C174.73 27.9515 173.784 22.2853 171.946 20.1435C170.081 18.0289 165.703 16.9444 158.784 16.9444H141.541V4.96133H241.703V16.9715H223.351C218.784 16.9715 215.568 17.568 213.703 18.7338C211.838 19.8995 210.324 21.9329 209.162 24.8066C208.514 26.6231 208.189 31.3675 208.189 39.04V209.27C208.189 217.485 208.865 222.446 210.27 224.127C213.027 227.76 218.081 229.577 225.432 229.577H241.703V241.56H141.541V229.577H158.784C165.595 229.577 170.189 227.706 172.649 223.965C174.027 221.931 174.73 216.59 174.73 207.969V125.741H66.9189V209.243C66.9189 217.566 67.5676 222.582 68.8378 224.29C71.4865 227.814 76.0811 229.577 82.5405 229.577H101.027V241.56H0.24324V229.577H19.5405C22.9459 229.577 25.6486 228.872 27.6757 227.489C29.7027 226.106 31.1892 224.127 32.1351 221.579C32.6486 219.871 32.9189 215.343 32.9189 207.996V37.1151C32.9189 28.2498 31.9459 22.692 29.973 20.3875C28 18.1102 23.7297 16.9444 17.1351 16.9444H0.24324V4.96133Z" fill="white"/>
<path d="M371.162 0H381.838L466.405 216.428C469.811 225.185 476.784 229.55 487.297 229.55H494.649V241.533H400.541V229.55H408.027C417.811 229.55 424.703 228.465 428.757 226.35C431.514 224.859 432.892 222.555 432.892 219.464C432.892 217.648 432.514 215.723 431.784 213.69L412.27 163.453H318.973L308 192.245C305.135 199.917 303.703 205.99 303.703 210.491C303.703 215.723 306.108 220.196 310.946 223.938C315.784 227.679 322.838 229.55 332.081 229.55H340.054V241.533H254.568V229.55C263.703 229.55 270.946 227.543 276.243 223.558C281.541 219.546 286.432 211.955 290.919 200.758L371.162 0ZM366.514 45.5737L324.162 151.009H407.486L366.541 45.5737H366.514Z" fill="white"/>
<path d="M503.081 4.96133H612.486V16.9715H586.324C582.189 16.9715 579.135 18.056 577.162 20.252C575.189 22.448 574.189 25.864 574.189 30.5813V217.268C574.189 221.769 575.432 224.941 577.946 226.784C580.432 228.655 585.459 229.604 593 229.604H626.108C643.73 229.604 658.162 223.694 669.351 211.927C680.541 200.134 688.703 179.692 693.784 150.575H704.946L699.54 241.587H503.054V229.604H522.351C528.919 229.604 533.54 228.33 536.216 225.835C538.865 223.314 540.216 219.274 540.216 213.744V28.9546C540.216 24.9964 539.108 22.0142 536.865 20.008C534.649 17.9747 531.351 16.9715 526.973 16.9715H503.054V4.96133H503.081Z" fill="white"/>
</g>
<defs>
<clipPath id="clip0_63_32">
<rect width="705" height="389.098" fill="white"/>
</clipPath>
</defs>
</svg>
